<svg width="400" height="26" viewBox="0 0 400 26" fill="none" xmlns="http://www.w3.org/2000/svg">
<path d="M11.8667 5.2C10.1333 8 6.66667 13.7333 4.26667 18.1333L0 25.8667L22.4 25.3333C46.6667 24.8 50.4 23.8667 56.1333 16.6667C59.7333 12 59.0667 7.33333 54.4 3.73333C51.0667 1.33333 48.4 0.933334 32.8 0.533334L14.9333 6.85453e-07L11.8667 5.2ZM44.6667 8.26667C48.8 9.86667 49.0667 12.4 45.3333 15.7333C43.0667 17.7333 40 18.4 29.3333 18.6667C22.1333 18.9333 16.1333 18.8 16.1333 18.4C16.1333 17.8667 17.6 15.2 19.4667 12.2667L22.8 6.93333H32C37.2 6.93333 42.8 7.46667 44.6667 8.26667Z" fill="black"/>
<path d="M71.4667 6.13334L78.1333 12L64.8 18.6667L51.4667 25.4667H61.2C69.0667 25.6 72.1333 24.9333 77.6 22.1333L84.4 18.6667L88 22.1333C90.9333 24.9333 92.9333 25.6 98.1333 25.6H104.667L98.9333 19.7333L93.0667 13.8667L105.6 7.33334L118.133 0.933338L110.133 0.533338C103.6 0.133338 100.667 0.800005 94.4 3.73334L86.8 7.46667L83.0667 3.86667C79.8667 0.800005 78.1333 0.266671 72 0.266671H64.8L71.4667 6.13334Z" fill="black"/>
<path d="M121.733 9.20001C115.467 20 113.467 23.8667 113.467 24.8C113.467 25.2 115.467 25.6 118 25.6C122.267 25.6 122.933 24.9333 127.733 16.5333L132.933 7.60001L144.133 7.20001C156.8 6.80001 161.867 7.60001 161.067 10C160.8 11.0667 156 11.8667 147.333 12.2667L134.133 12.9333L142.8 19.2C150.133 24.6667 152.267 25.6 157.467 25.6L163.467 25.4667L159.6 22.4L155.867 19.3333L160.933 18.2667C168 17.0667 170.667 15.3333 172.133 11.4667C175.467 2.93334 168.667 0.266671 144.667 0.266671H126.933L121.733 9.20001Z" fill="black"/>
<path d="M191.467 1.73334C186.4 3.20001 181.733 8.13334 176.267 17.8667L172 25.6H177.333C181.6 25.6 183.2 24.9333 184.933 22.2667C187.067 19.0667 187.6 18.9333 200.933 18.9333H214.8L212.667 22.2667L210.533 25.6H216.4H222.267L228.933 14C232.533 7.60001 235.733 1.86667 235.867 1.33334C236.533 -0.133326 196.533 0.266674 191.467 1.73334ZM220.133 7.86667C220 11.2 217.2 12.1333 204.4 12.5333C196.933 12.8 190.8 12.4 190.8 11.8667C190.8 9.46667 200.133 7.06667 209.867 6.93334C215.467 6.93334 220.133 7.33334 220.133 7.86667Z" fill="black"/>
<path d="M245.733 1.86667C242.533 3.46667 233.467 17.6 233.467 20.9333C233.467 24.5333 238.667 25.6 256.133 25.6C274.267 25.6 280.133 24.2667 282 19.6C283.2 16.2667 283.2 16.2667 276.8 16.2667C273.467 16.2667 270.8 16.8 270.8 17.6C270.8 19.2 248.533 19.4667 247.6 17.7333C247.2 17.0667 248.267 14.5333 249.867 12.1333C252.933 7.60001 252.933 7.60001 264.533 7.20001C271.867 6.93334 276.133 7.33334 276.133 8.26667C276.133 8.93334 278.8 9.60001 281.867 9.60001C286.8 9.60001 288 9.06667 289.2 6.26667C290.533 3.46667 290.4 2.8 288.133 1.6C284.8 -0.266662 249.6 4.76837e-06 245.733 1.86667Z" fill="black"/>
<path d="M293.6 12.1333C289.867 18.5333 286.8 24.2667 286.8 24.8C286.8 25.2 296.933 25.6 309.333 25.6C331.333 25.6 332 25.4667 334.133 22.5333L336.133 19.6L318.133 19.2C296.8 18.8 294.4 16.2667 315.333 16.2667C328.667 16.2667 329.067 16.1333 330.533 12.9333L332.133 9.60001H318.667C310.133 9.60001 305.6 9.06667 306.133 8.26667C306.667 7.46667 314.267 6.93334 324.667 6.93334C342.267 6.93334 342.4 6.93334 343.867 3.6L345.467 0.266671H322.933H300.4L293.6 12.1333Z" fill="black"/>
<path d="M346.933 12.4C343.2 19.0667 340.133 24.9333 340.133 25.2C340.133 25.4667 342.4 25.6 345.067 25.3333C349.6 24.9333 350.4 24.2667 355.2 15.8667L360.4 6.93334H372.667C381.2 6.93334 385.733 7.46667 387.6 8.80001C391.2 11.4667 388.8 12.1333 373.733 12.5333L361.2 12.9333L370 19.3333C378 25.2 379.333 25.7333 385.067 25.3333L391.467 24.9333L386.8 22.4L382.133 19.8667L388.8 18.2667C399.067 15.6 403.067 8.66668 397.333 3.46668C394.933 1.20001 391.867 0.933342 374.133 0.533342L353.867 8.84371e-06L346.933 12.4Z" fill="black"/>
</svg>
