<?xml version="1.0" encoding="UTF-8" standalone="no"?>
<!-- Created with Inkscape (http://www.inkscape.org/) -->

<svg
   version="1.1"
   id="svg2"
   xml:space="preserve"
   width="249.024"
   height="73.804001"
   viewBox="0 0 249.024 73.804001"
   sodipodi:docname="7331968482233df47d95b4a6794140e6.ai"
   xmlns:inkscape="http://www.inkscape.org/namespaces/inkscape"
   xmlns:sodipodi="http://sodipodi.sourceforge.net/DTD/sodipodi-0.dtd"
   xmlns="http://www.w3.org/2000/svg"
   xmlns:svg="http://www.w3.org/2000/svg"><defs
     id="defs6"><clipPath
       clipPathUnits="userSpaceOnUse"
       id="clipPath16"><path
         d="M 0,208.087 H 230.487 V 0 H 0 Z"
         id="path14" /></clipPath><linearGradient
       x1="0"
       y1="0"
       x2="1"
       y2="0"
       gradientUnits="userSpaceOnUse"
       gradientTransform="matrix(0,52.886528,52.886528,0,158.63074,77.60083)"
       spreadMethod="pad"
       id="linearGradient42"><stop
         style="stop-opacity:1;stop-color:#1d1d1b"
         offset="0"
         id="stop38" /><stop
         style="stop-opacity:1;stop-color:#878787"
         offset="1"
         id="stop40" /></linearGradient><linearGradient
       x1="0"
       y1="0"
       x2="1"
       y2="0"
       gradientUnits="userSpaceOnUse"
       gradientTransform="matrix(0,37.896698,37.896698,0,52.162788,85.095123)"
       spreadMethod="pad"
       id="linearGradient64"><stop
         style="stop-opacity:1;stop-color:#2f388d"
         offset="0"
         id="stop58" /><stop
         style="stop-opacity:1;stop-color:#4fc1e6"
         offset="0.8"
         id="stop60" /><stop
         style="stop-opacity:1;stop-color:#4fc1e6"
         offset="1"
         id="stop62" /></linearGradient><clipPath
       clipPathUnits="userSpaceOnUse"
       id="clipPath74"><path
         d="M 0,208.087 H 230.487 V 0 H 0 Z"
         id="path72" /></clipPath></defs><sodipodi:namedview
     id="namedview4"
     pagecolor="#ffffff"
     bordercolor="#666666"
     borderopacity="1.0"
     inkscape:pageshadow="2"
     inkscape:pageopacity="0.0"
     inkscape:pagecheckerboard="0" /><g
     id="g8"
     inkscape:groupmode="layer"
     inkscape:label="7331968482233df47d95b4a6794140e6"
     transform="matrix(1.3333333,0,0,-1.3333333,-29.145733,175.6264)"><g
       id="g10"><g
         id="g12"
         clip-path="url(#clipPath16)"><g
           id="g18"
           transform="translate(202.0833,76.3668)"><path
             d="m 0,0 h -173.677 c -3.609,0 -6.547,2.931 -6.547,6.537 v 42.276 c 0,3.607 2.938,6.54 6.547,6.54 H 0 c 3.604,0 6.544,-2.933 6.544,-6.54 V 6.537 C 6.548,2.931 3.608,0 0,0"
             style="fill:#b2b2b2;fill-opacity:1;fill-rule:nonzero;stroke:none"
             id="path20" /></g><g
           id="g22"
           transform="translate(207.3924,82.9005)"><path
             d="m 0,0 c 0,-2.929 -2.372,-5.302 -5.307,-5.302 h -173.678 c -2.933,0 -5.313,2.373 -5.313,5.302 v 42.279 c 0,2.929 2.38,5.308 5.313,5.308 H -5.308 c 2.936,0 5.306,-2.379 5.306,-5.308 L 0,0"
             style="fill:#1d1d1b;fill-opacity:1;fill-rule:nonzero;stroke:none"
             id="path24" /></g></g></g><g
       id="g26"><g
         id="g28"><g
           id="g34"><g
             id="g36"><path
               d="m 109.869,130.487 34.818,-52.886 h 57.398 c 2.935,0 5.307,2.371 5.307,5.3 v 0 42.279 c 0,2.928 -2.372,5.307 -5.307,5.307 v 0 z"
               style="fill:url(#linearGradient42);stroke:none"
               id="path44" /></g></g></g></g><g
       id="g46"><g
         id="g48"><g
           id="g54"><g
             id="g56"><path
               d="m 41.306,122.992 c -4.444,0 -8.079,-3.636 -8.079,-8.079 v 0 -21.739 c 0,-4.443 3.635,-8.079 8.079,-8.079 v 0 H 63.02 c 4.443,0 8.078,3.636 8.078,8.079 v 0 21.739 c 0,4.443 -3.635,8.079 -8.078,8.079 v 0 z"
               style="fill:url(#linearGradient64);stroke:none"
               id="path66" /></g></g></g></g><g
       id="g68"><g
         id="g70"
         clip-path="url(#clipPath74)"><g
           id="g76"
           transform="translate(38.9281,113.8561)"><path
             d="m 0,0 c -0.093,-0.125 -0.104,-0.117 -0.174,-0.247 l -0.042,-0.045 -0.041,-0.039 c -0.098,-0.223 -0.308,-0.44 -0.424,-0.651 -1.356,-2.264 -2.076,-4.16 -2.435,-6.784 l -0.091,-0.57 c 0.152,-0.831 -0.435,-2.791 0.781,-6.608 0.294,-0.923 0.671,-1.782 1.1,-2.604 0.879,-1.684 1.919,-2.972 3.209,-4.237 1.463,-1.433 3.743,-2.877 5.729,-3.566 0.237,-0.082 0.462,-0.159 0.693,-0.233 0.212,-0.068 0.533,-0.139 0.719,-0.222 l 0.865,-0.201 c 0.035,0.22 -0.028,0.547 0.048,0.71 0.188,0.094 6.069,0.056 6.777,0.029 0.2,-0.004 0.239,0.017 0.258,-0.195 0.014,-0.148 -0.003,-0.325 0.002,-0.478 2.29,0.366 5.541,2.111 7.27,3.716 1.134,1.052 1.613,1.525 2.586,2.882 0.373,0.519 0.715,1.08 1.046,1.69 0.276,0.51 0.713,1.347 0.874,1.923 l 0.053,0.069 c 0.017,0.193 0.29,0.888 0.371,1.169 0.668,2.322 0.622,3.324 0.622,5.687 0,1.923 -0.793,4.628 -1.649,6.302 -0.358,0.701 -0.735,1.377 -1.158,1.995 -0.788,1.152 -1.744,2.237 -2.79,3.144 L 24.047,2.775 C 23.996,2.839 24.029,2.785 24.003,2.844 23.912,2.832 23.928,2.813 23.959,2.901 23.845,2.925 23.94,2.878 23.811,2.962 l -2.136,1.52 c -0.112,0.03 -0.132,0.05 -0.234,0.107 -0.012,0.007 -0.093,0.055 -0.104,0.064 -0.088,0.071 -0.037,0.013 -0.079,0.086 -0.181,0.02 -1.075,0.513 -1.357,0.626 -0.257,0.102 -0.484,0.207 -0.716,0.293 -0.241,0.09 -0.498,0.163 -0.724,0.256 -0.22,0.044 -0.454,0.132 -0.68,0.196 -0.44,0.125 -1.598,0.399 -1.992,0.436 C 12.687,6.842 10.281,6.791 7.34,5.614 4.033,4.291 1.798,2.397 0,0 m 3.26,1.247 c 0.046,0.177 0.599,0.577 0.739,0.686 0.51,0.4 2.27,1.638 2.741,1.685 l 0.136,0.108 c 0.064,0.035 0.11,0.05 0.176,0.079 l 1.162,0.478 c 0.259,0.101 0.544,0.184 0.823,0.271 0.209,0.066 0.661,0.151 0.827,0.231 0.978,0.148 0.944,0.245 2.137,0.336 1.492,0.114 3.024,0.041 4.471,-0.283 0.412,-0.092 1.58,-0.361 1.831,-0.54 C 18.857,4.183 19.755,3.719 20.211,3.49 20.523,3.334 20.798,3.167 21.067,3 L 21.833,2.5 C 21.891,2.437 21.85,2.491 21.887,2.426 22.05,2.399 22.455,2.057 22.612,1.935 22.656,1.901 22.7,1.868 22.729,1.84 l 0.098,-0.122 c 0.07,0.025 0.056,0.033 0.03,-0.037 0.194,-0.044 0.702,-0.577 0.872,-0.736 0.828,-0.766 1.57,-1.742 2.217,-2.706 0.627,-0.934 1.864,-3.534 1.935,-4.632 l 0.12,-0.589 c 0.217,-0.438 0.287,-2.501 0.284,-3.169 -0.014,-3.487 -1.434,-6.829 -3.572,-9.389 -0.363,-0.435 -0.899,-0.938 -1.287,-1.32 -1.392,-1.37 -3.606,-2.609 -5.464,-3.206 -3.935,-1.264 -8.171,-0.814 -11.483,0.902 -2.61,1.352 -4.763,3.424 -6.179,5.899 -0.142,0.248 -0.531,0.922 -0.593,1.203 -0.209,0.189 -0.694,1.685 -0.809,2.108 -0.684,2.51 -0.815,5.35 -0.114,7.841 10e-4,0.003 0.031,0.113 0.036,0.133 l 0.112,0.443 c 0.337,1.14 0.99,2.631 1.602,3.568 0.77,1.178 1.032,1.512 1.927,2.492 0.153,0.167 0.603,0.669 0.799,0.724"
             style="fill:#fbfdfc;fill-opacity:1;fill-rule:evenodd;stroke:none"
             id="path78" /></g><g
           id="g80"
           transform="translate(43.8094,100.1046)"><path
             d="m 0,0 -1.026,-3.96 2.954,2.805 z m 5.202,8.986 c 0.004,0.192 0.236,0.54 0.336,0.701 0.508,0.825 0.621,1.372 1.75,0.727 0.43,-0.245 0.945,-0.537 0.668,-1.216 L 7.204,7.898 C 7.005,7.904 5.448,8.817 5.202,8.986 M 12.985,2.338 15.004,3.471 16.119,1.49 14.147,0.355 Z M 2.481,4.944 -1.811,4.943 V 2.746 h 3.01 z m 13.243,-2.197 -1.22,2.197 h 4.221 V 2.745 Z M 17.135,-4 c 0.353,0.069 0.582,1.019 0.619,1.46 0.056,0.668 -0.013,1.324 -0.19,1.901 -0.19,0.624 -0.822,1.664 -1.482,1.669 -0.254,0.003 -1.116,-0.533 -1.369,-0.69 -0.725,-0.452 0.079,-1.759 0.446,-2.166 0.302,-0.335 0.858,-0.589 1.222,-0.891 0.636,-0.527 0.514,-1.064 0.754,-1.283 M 4.561,2.745 5.804,4.944 h 5.329 L 12.364,2.748 Z M 2.317,4.132 4.318,7.582 4.659,8.167 4.986,8.716 C 5.147,8.705 6.899,7.685 6.996,7.594 L 6.934,7.387 6.26,6.226 5.584,5.051 2.534,-0.233 C 2.485,-0.329 2.532,-0.244 2.477,-0.342 2.472,-0.35 2.465,-0.36 2.461,-0.368 L 2.429,-0.42 C 2.167,-0.854 2.184,-0.892 1.973,-0.788 l -0.43,0.244 C 1.535,-0.54 1.524,-0.534 1.517,-0.529 1.504,-0.521 1.478,-0.505 1.464,-0.497 L 0.216,0.236 C 0.172,0.27 0.171,0.275 0.179,0.304 L 0.57,1.061 Z m 6.261,5.751 4.223,-7.284 2.009,1.131 -2.489,4.401 -1.484,2.556 c -0.49,0.861 -0.951,1.699 -1.476,2.56 C 9.06,13.742 8.715,13.979 8.053,13.605 6.593,12.78 7.056,12.544 8.197,10.566 Z"
             style="fill:#fbfdfc;fill-opacity:1;fill-rule:evenodd;stroke:none"
             id="path82" /></g><g
           id="g84"
           transform="translate(52.1629,120.6437)"><path
             d="m 0,0 c -9.168,0 -16.601,-7.432 -16.601,-16.6 0,-9.168 7.433,-16.601 16.601,-16.601 9.168,0 16.6,7.433 16.6,16.601 C 16.6,-7.432 9.168,0 0,0 m 0,-1.691 c 8.234,0 14.909,-6.675 14.909,-14.909 0,-8.234 -6.675,-14.909 -14.909,-14.909 -8.234,0 -14.909,6.675 -14.909,14.909 0,8.234 6.675,14.909 14.909,14.909"
             style="fill:#ffffff;fill-opacity:1;fill-rule:evenodd;stroke:none"
             id="path86" /></g><g
           id="g88"
           transform="translate(93.2762,97.1505)"><path
             d="M 0,0 -1.557,4.81 C -1.72,5.302 -2.032,6.46 -2.485,8.28 H -2.541 C -2.724,7.498 -3.016,6.342 -3.416,4.81 L -4.947,0 Z M 5.385,-7.679 H 2.242 L 0.52,-2.27 h -5.985 l -1.64,-5.409 h -3.061 l 5.931,18.421 h 3.663 z"
             style="fill:#ffffff;fill-opacity:1;fill-rule:nonzero;stroke:none"
             id="path90" /></g><g
           id="g92"
           transform="translate(110.8788,96.1662)"><path
             d="M 0,0 C 0,1.292 -0.29,2.359 -0.875,3.2 -1.513,4.073 -2.37,4.51 -3.445,4.51 -4.172,4.51 -4.833,4.266 -5.425,3.786 -6.018,3.301 -6.404,2.67 -6.586,1.885 -6.677,1.52 -6.723,1.225 -6.723,0.988 v -2.217 c 0,-0.963 0.297,-1.778 0.888,-2.447 0.592,-0.664 1.361,-0.997 2.309,-0.997 1.111,0 1.976,0.43 2.595,1.284 C -0.31,-2.534 0,-1.402 0,0 m 3.007,0.109 c 0,-2.26 -0.613,-4.046 -1.842,-5.356 -1.099,-1.166 -2.464,-1.748 -4.095,-1.748 -1.759,0 -3.025,0.627 -3.793,1.885 v -6.973 H -9.674 V 2.22 c 0,1.419 -0.036,2.874 -0.109,4.366 h 2.595 L -7.023,4.48 h 0.056 c 0.984,1.588 2.478,2.381 4.481,2.381 1.569,0 2.876,-0.62 3.922,-1.859 1.046,-1.241 1.571,-2.87 1.571,-4.893"
             style="fill:#ffffff;fill-opacity:1;fill-rule:nonzero;stroke:none"
             id="path94" /></g><g
           id="g96"
           transform="translate(126.1546,96.1662)"><path
             d="M 0,0 C 0,1.292 -0.293,2.359 -0.875,3.2 -1.513,4.073 -2.37,4.51 -3.443,4.51 -4.171,4.51 -4.833,4.266 -5.426,3.786 -6.017,3.301 -6.402,2.67 -6.586,1.885 -6.676,1.52 -6.726,1.225 -6.726,0.988 v -2.217 c 0,-0.963 0.299,-1.778 0.891,-2.447 0.593,-0.662 1.359,-0.997 2.309,-0.997 1.114,0 1.979,0.43 2.595,1.284 C -0.312,-2.534 0,-1.402 0,0 m 3.008,0.109 c 0,-2.26 -0.614,-4.046 -1.84,-5.356 -1.101,-1.166 -2.467,-1.748 -4.097,-1.748 -1.757,0 -3.025,0.627 -3.792,1.885 v -6.973 H -9.673 V 2.22 c 0,1.419 -0.037,2.874 -0.108,4.366 h 2.594 L -7.021,4.48 h 0.055 c 0.981,1.588 2.475,2.381 4.482,2.381 1.566,0 2.875,-0.62 3.922,-1.859 1.044,-1.241 1.57,-2.87 1.57,-4.893"
             style="fill:#ffffff;fill-opacity:1;fill-rule:nonzero;stroke:none"
             id="path98" /></g><g
           id="g100"
           transform="translate(146.244,94.6364)"><path
             d="M 0,0 C 0,-1.568 -0.548,-2.844 -1.638,-3.828 -2.836,-4.9 -4.51,-5.439 -6.654,-5.439 c -1.983,0 -3.572,0.383 -4.773,1.149 l 0.683,2.459 c 1.294,-0.766 2.718,-1.148 4.265,-1.148 1.113,0 1.979,0.249 2.596,0.751 0.62,0.499 0.929,1.169 0.929,2.009 0,0.746 -0.257,1.374 -0.763,1.884 -0.511,0.511 -1.358,0.984 -2.542,1.42 -3.226,1.202 -4.841,2.962 -4.841,5.279 0,1.51 0.571,2.747 1.708,3.714 1.139,0.967 2.646,1.449 4.525,1.449 1.675,0 3.072,-0.292 4.18,-0.875 l -0.741,-2.405 c -1.043,0.566 -2.222,0.847 -3.538,0.847 -1.042,0 -1.859,-0.256 -2.443,-0.766 C -7.9,9.874 -8.148,9.318 -8.148,8.659 -8.148,7.932 -7.865,7.328 -7.302,6.854 -6.81,6.419 -5.917,5.946 -4.623,5.436 -3.038,4.797 -1.875,4.05 -1.127,3.195 -0.376,2.341 0,1.273 0,0"
             style="fill:#ffffff;fill-opacity:1;fill-rule:nonzero;stroke:none"
             id="path102" /></g><g
           id="g104"
           transform="translate(156.0272,100.5392)"><path
             d="m 0,0 h -3.253 v -6.451 c 0,-1.639 0.574,-2.458 1.719,-2.458 0.53,0 0.965,0.045 1.313,0.136 l 0.082,-2.24 c -0.582,-0.216 -1.348,-0.327 -2.296,-0.327 -1.164,0 -2.077,0.359 -2.734,1.069 -0.655,0.709 -0.983,1.903 -0.983,3.58 v 6.696 h -1.936 v 2.212 h 1.936 v 2.435 l 2.899,0.875 V 2.217 H 0 Z"
             style="fill:#ffffff;fill-opacity:1;fill-rule:nonzero;stroke:none"
             id="path106" /></g><g
           id="g108"
           transform="translate(167.6151,96.1535)"><path
             d="m 0,0 c 0,1.217 -0.265,2.26 -0.791,3.133 -0.619,1.054 -1.505,1.583 -2.653,1.583 -1.181,0 -2.089,-0.529 -2.705,-1.583 -0.529,-0.873 -0.792,-1.935 -0.792,-3.187 0,-1.218 0.263,-2.266 0.792,-3.136 0.638,-1.057 1.528,-1.584 2.681,-1.584 1.128,0 2.012,0.54 2.655,1.611 C -0.272,-2.27 0,-1.218 0,0 m 3.058,0.068 c 0,-2.041 -0.582,-3.716 -1.75,-5.028 -1.218,-1.351 -2.84,-2.022 -4.862,-2.022 -1.952,0 -3.504,0.646 -4.66,1.937 -1.158,1.294 -1.737,2.925 -1.737,4.891 0,2.06 0.597,3.746 1.789,5.056 1.194,1.31 2.802,1.968 4.826,1.968 1.948,0 3.512,-0.65 4.699,-1.941 C 2.495,3.674 3.058,2.056 3.058,0.068"
             style="fill:#ffffff;fill-opacity:1;fill-rule:nonzero;stroke:none"
             id="path110" /></g><g
           id="g112"
           transform="translate(180.2703,100.1583)"><path
             d="m 0,0 c -0.292,0.052 -0.604,0.078 -0.931,0.078 -1.036,0 -1.839,-0.386 -2.403,-1.173 -0.494,-0.693 -0.738,-1.568 -0.738,-2.625 v -6.968 h -2.951 v 9.101 c 0,1.528 -0.028,2.924 -0.086,4.18 h 2.569 l 0.11,-2.541 h 0.083 c 0.311,0.873 0.803,1.577 1.473,2.103 0.657,0.477 1.369,0.714 2.135,0.714 0.272,0 0.518,-0.021 0.738,-0.053 z"
             style="fill:#ffffff;fill-opacity:1;fill-rule:nonzero;stroke:none"
             id="path114" /></g><g
           id="g116"
           transform="translate(190.6551,97.505)"><path
             d="m 0,0 c 0.021,0.876 -0.173,1.631 -0.572,2.271 -0.511,0.821 -1.3,1.23 -2.35,1.23 -0.967,0 -1.75,-0.399 -2.352,-1.203 C -5.764,1.66 -6.055,0.892 -6.145,0.002 Z m 2.815,-0.764 c 0,-0.529 -0.034,-0.976 -0.107,-1.339 h -8.853 c 0.031,-1.312 0.462,-2.316 1.284,-3.009 0.744,-0.619 1.709,-0.928 2.895,-0.928 1.311,0 2.507,0.207 3.581,0.627 l 0.463,-2.048 c -1.257,-0.546 -2.741,-0.82 -4.452,-0.82 -2.062,0 -3.677,0.608 -4.854,1.817 -1.174,1.209 -1.761,2.839 -1.761,4.874 0,2.003 0.543,3.673 1.639,5.002 1.149,1.423 2.696,2.132 4.645,2.132 1.915,0 3.364,-0.709 4.348,-2.132 0.781,-1.123 1.172,-2.52 1.172,-4.176"
             style="fill:#ffffff;fill-opacity:1;fill-rule:nonzero;stroke:none"
             id="path118" /></g><g
           id="g120"
           transform="translate(90.7425,119.1891)"><path
             d="m 0,0 c 0,1.055 -0.278,1.863 -0.838,2.425 -0.559,0.563 -1.376,0.846 -2.451,0.846 -0.457,0 -0.846,-0.032 -1.169,-0.095 v -6.754 c 0.18,-0.029 0.506,-0.04 0.981,-0.04 1.109,0 1.967,0.309 2.571,0.925 C -0.303,-2.079 0,-1.176 0,0 m 1.532,0.042 c 0,-1.625 -0.49,-2.851 -1.464,-3.674 -0.906,-0.759 -2.19,-1.139 -3.853,-1.139 -0.825,0 -1.53,0.036 -2.122,0.107 v 8.89 c 0.77,0.123 1.601,0.186 2.499,0.186 1.584,0 2.78,-0.344 3.584,-1.03 0.903,-0.779 1.356,-1.893 1.356,-3.34"
             style="fill:#ffffff;fill-opacity:1;fill-rule:nonzero;stroke:none"
             id="path122" /></g><g
           id="g124"
           transform="translate(98.4627,117.7667)"><path
             d="m 0,0 c 0,0.597 -0.13,1.111 -0.388,1.54 -0.306,0.517 -0.738,0.774 -1.301,0.774 -0.582,0 -1.027,-0.257 -1.331,-0.774 -0.26,-0.429 -0.388,-0.952 -0.388,-1.567 0,-0.6 0.128,-1.112 0.388,-1.54 0.314,-0.516 0.752,-0.777 1.317,-0.777 0.554,0 0.988,0.264 1.3,0.789 C -0.132,-1.115 0,-0.598 0,0 M 1.506,0.034 C 1.506,-0.97 1.22,-1.792 0.644,-2.436 0.044,-3.1 -0.75,-3.43 -1.745,-3.43 c -0.957,0 -1.72,0.317 -2.29,0.954 -0.568,0.635 -0.85,1.436 -0.85,2.403 0,1.011 0.291,1.84 0.879,2.484 0.587,0.642 1.375,0.964 2.368,0.964 0.959,0 1.729,-0.316 2.311,-0.951 0.554,-0.616 0.833,-1.415 0.833,-2.39"
             style="fill:#ffffff;fill-opacity:1;fill-rule:nonzero;stroke:none"
             id="path126" /></g><g
           id="g128"
           transform="translate(110.4271,121.0099)"><path
             d="M 0,0 -2.042,-6.525 H -3.37 l -0.846,2.834 c -0.216,0.707 -0.388,1.409 -0.525,2.107 H -4.768 C -4.893,-2.302 -5.067,-3.003 -5.292,-3.691 L -6.191,-6.525 H -7.534 L -9.455,0 h 1.492 l 0.737,-3.103 c 0.18,-0.732 0.327,-1.432 0.444,-2.093 h 0.026 c 0.108,0.546 0.286,1.239 0.539,2.08 l 0.925,3.115 h 1.182 l 0.888,-3.048 c 0.215,-0.744 0.388,-1.46 0.523,-2.149 h 0.041 c 0.097,0.671 0.245,1.388 0.442,2.149 l 0.791,3.048 H 0 Z"
             style="fill:#ffffff;fill-opacity:1;fill-rule:nonzero;stroke:none"
             id="path130" /></g><g
           id="g132"
           transform="translate(117.5448,114.484)"><path
             d="m 0,0 h -1.454 v 3.747 c 0,1.156 -0.435,1.732 -1.314,1.732 -0.431,0 -0.776,-0.159 -1.047,-0.477 C -4.084,4.686 -4.217,4.311 -4.217,3.882 V 0.001 h -1.451 v 4.66 c 0,0.575 -0.018,1.195 -0.053,1.868 h 1.275 l 0.068,-1.007 h 0.04 c 0.169,0.311 0.421,0.57 0.752,0.776 0.394,0.243 0.832,0.365 1.314,0.365 0.611,0 1.117,-0.199 1.519,-0.593 C -0.252,5.588 0,4.867 0,3.909 Z"
             style="fill:#ffffff;fill-opacity:1;fill-rule:nonzero;stroke:none"
             id="path134" /></g><path
           d="m 121.112,114.484 h -1.449 v 9.518 h 1.449 z"
           style="fill:#ffffff;fill-opacity:1;fill-rule:nonzero;stroke:none"
           id="path136" /><g
           id="g138"
           transform="translate(127.7352,117.7667)"><path
             d="m 0,0 c 0,0.597 -0.131,1.111 -0.39,1.54 -0.304,0.517 -0.738,0.774 -1.303,0.774 -0.582,0 -1.022,-0.257 -1.329,-0.774 -0.26,-0.429 -0.387,-0.952 -0.387,-1.567 0,-0.6 0.127,-1.112 0.387,-1.54 0.314,-0.516 0.751,-0.777 1.316,-0.777 0.554,0 0.989,0.264 1.3,0.789 C -0.135,-1.115 0,-0.598 0,0 M 1.502,0.034 C 1.502,-0.97 1.217,-1.792 0.643,-2.436 0.041,-3.1 -0.752,-3.43 -1.746,-3.43 c -0.957,0 -1.721,0.317 -2.292,0.954 -0.567,0.635 -0.853,1.436 -0.853,2.403 0,1.011 0.294,1.84 0.881,2.484 0.586,0.642 1.374,0.964 2.371,0.964 0.958,0 1.726,-0.316 2.307,-0.951 0.557,-0.616 0.834,-1.415 0.834,-2.39"
             style="fill:#ffffff;fill-opacity:1;fill-rule:nonzero;stroke:none"
             id="path140" /></g><g
           id="g142"
           transform="translate(134.3533,116.7267)"><path
             d="m 0,0 v 1.007 c -1.603,0.028 -2.403,-0.411 -2.403,-1.317 0,-0.339 0.094,-0.593 0.28,-0.765 0.188,-0.169 0.424,-0.253 0.706,-0.253 0.323,0 0.618,0.099 0.89,0.301 0.272,0.202 0.439,0.458 0.503,0.772 z M 1.504,-2.242 H 0.202 L 0.096,-1.49 H 0.054 c -0.448,-0.599 -1.083,-0.9 -1.905,-0.9 -0.62,0 -1.115,0.198 -1.492,0.59 -0.341,0.358 -0.507,0.802 -0.507,1.329 0,0.798 0.332,1.405 0.998,1.826 0.665,0.421 1.604,0.628 2.813,0.618 v 0.122 c 0,0.858 -0.451,1.288 -1.356,1.288 -0.646,0 -1.212,-0.161 -1.7,-0.483 l -0.301,0.953 c 0.61,0.376 1.355,0.563 2.245,0.563 1.707,0 2.565,-0.899 2.565,-2.699 v -2.403 c -0.007,-0.652 0.028,-1.171 0.09,-1.556"
             style="fill:#ffffff;fill-opacity:1;fill-rule:nonzero;stroke:none"
             id="path144" /></g><g
           id="g146"
           transform="translate(142.1815,117.2365)"><path
             d="m 0,0 v 1.088 c 0,0.189 -0.012,0.341 -0.038,0.456 -0.083,0.349 -0.259,0.642 -0.53,0.881 -0.268,0.236 -0.591,0.355 -0.968,0.355 -0.541,0 -0.962,-0.215 -1.273,-0.646 -0.312,-0.43 -0.466,-0.98 -0.466,-1.651 0,-0.645 0.147,-1.168 0.442,-1.571 0.317,-0.429 0.737,-0.644 1.268,-0.644 0.476,0 0.861,0.179 1.143,0.536 C -0.14,-0.863 0,-0.465 0,0 M 1.505,-2.753 H 0.213 l -0.067,1.05 H 0.106 C -0.305,-2.501 -1.003,-2.9 -1.987,-2.9 c -0.788,0 -1.44,0.308 -1.96,0.926 -0.522,0.617 -0.778,1.418 -0.778,2.403 0,1.055 0.281,1.911 0.847,2.565 0.551,0.609 1.226,0.913 2.026,0.913 0.886,0 1.5,-0.295 1.852,-0.886 v 3.746 h 1.449 v -7.761 c 0,-0.637 0.021,-1.22 0.056,-1.759"
             style="fill:#ffffff;fill-opacity:1;fill-rule:nonzero;stroke:none"
             id="path148" /></g><g
           id="g150"
           transform="translate(153.742,117.7667)"><path
             d="m 0,0 c 0,0.597 -0.131,1.111 -0.39,1.54 -0.304,0.517 -0.738,0.774 -1.299,0.774 -0.584,0 -1.026,-0.257 -1.33,-0.774 -0.258,-0.429 -0.388,-0.952 -0.388,-1.567 0,-0.6 0.13,-1.112 0.388,-1.54 0.316,-0.516 0.751,-0.777 1.316,-0.777 0.552,0 0.986,0.264 1.297,0.789 C -0.135,-1.115 0,-0.598 0,0 m 1.504,0.034 c 0,-1.004 -0.287,-1.826 -0.861,-2.47 -0.6,-0.664 -1.398,-0.994 -2.389,-0.994 -0.962,0 -1.724,0.317 -2.29,0.954 -0.568,0.635 -0.853,1.436 -0.853,2.403 0,1.011 0.293,1.84 0.879,2.484 0.586,0.642 1.378,0.964 2.369,0.964 0.96,0 1.728,-0.316 2.309,-0.951 0.557,-0.616 0.836,-1.415 0.836,-2.39"
             style="fill:#ffffff;fill-opacity:1;fill-rule:nonzero;stroke:none"
             id="path152" /></g><g
           id="g154"
           transform="translate(162.6414,114.484)"><path
             d="m 0,0 h -1.449 v 3.747 c 0,1.156 -0.438,1.732 -1.317,1.732 -0.43,0 -0.777,-0.159 -1.046,-0.477 -0.27,-0.316 -0.401,-0.691 -0.401,-1.12 V 0.001 h -1.454 v 4.66 c 0,0.575 -0.014,1.195 -0.05,1.868 h 1.273 l 0.067,-1.007 h 0.04 c 0.173,0.311 0.424,0.57 0.751,0.776 0.398,0.243 0.834,0.365 1.318,0.365 0.608,0 1.116,-0.199 1.517,-0.593 C -0.248,5.588 0,4.867 0,3.909 Z"
             style="fill:#ffffff;fill-opacity:1;fill-rule:nonzero;stroke:none"
             id="path156" /></g><g
           id="g158"
           transform="translate(171.5731,119.923)"><path
             d="m 0,0 h -1.598 v -3.17 c 0,-0.806 0.282,-1.207 0.845,-1.207 0.26,0 0.473,0.021 0.646,0.066 l 0.039,-1.101 c -0.287,-0.108 -0.661,-0.161 -1.126,-0.161 -0.573,0 -1.023,0.175 -1.345,0.523 -0.323,0.35 -0.484,0.936 -0.484,1.76 V 0 h -0.952 v 1.086 h 0.952 v 1.196 l 1.425,0.429 V 1.088 h 1.596 z"
             style="fill:#ffffff;fill-opacity:1;fill-rule:nonzero;stroke:none"
             id="path160" /></g><g
           id="g162"
           transform="translate(178.825,114.484)"><path
             d="m 0,0 h -1.453 v 3.72 c 0,1.173 -0.437,1.759 -1.314,1.759 -0.672,0 -1.132,-0.339 -1.385,-1.021 C -4.194,4.315 -4.22,4.142 -4.22,3.936 V 0.001 h -1.45 v 9.518 h 1.45 v -3.92 h 0.03 c 0.456,0.707 1.111,1.059 1.96,1.059 0.601,0 1.096,-0.196 1.491,-0.59 C -0.248,5.575 0,4.845 0,3.88 Z"
             style="fill:#ffffff;fill-opacity:1;fill-rule:nonzero;stroke:none"
             id="path164" /></g><g
           id="g166"
           transform="translate(184.9461,118.4303)"><path
             d="M 0,0 C 0.011,0.431 -0.086,0.802 -0.282,1.115 -0.536,1.517 -0.916,1.719 -1.437,1.719 -1.91,1.719 -2.296,1.523 -2.591,1.129 -2.832,0.814 -2.974,0.438 -3.023,0 Z m 1.383,-0.374 c 0,-0.261 -0.02,-0.479 -0.054,-0.657 h -4.352 c 0.023,-0.646 0.227,-1.137 0.631,-1.477 0.368,-0.306 0.841,-0.458 1.423,-0.458 0.646,0 1.231,0.102 1.758,0.309 l 0.228,-1.009 c -0.618,-0.267 -1.348,-0.401 -2.19,-0.401 -1.009,0 -1.805,0.297 -2.38,0.892 -0.579,0.595 -0.866,1.393 -0.866,2.397 0,0.982 0.266,1.803 0.806,2.457 0.56,0.696 1.32,1.046 2.28,1.046 0.938,0 1.652,-0.35 2.133,-1.046 0.39,-0.554 0.583,-1.241 0.583,-2.053"
             style="fill:#ffffff;fill-opacity:1;fill-rule:nonzero;stroke:none"
             id="path168" /></g></g></g></g></svg>
